<svg width="100.000000pt" height="100.000000pt" viewBox="0 0 100.000000 100.000000" xmlns="http://www.w3.org/2000/svg">
  <g transform="translate(0.000000,100.000000) scale(0.100000,-0.100000)" fill="#fefefe" stroke="none">
    <path d="M0 500 c0 -500 0 -500 500 -500 500 0 500 0 500 500 0 500 0 500
-500 500 -500 0 -500 0 -500 -500z m596 263 c102 -35 184 -151 184 -263 0
-151 -129 -280 -280 -280 -151 0 -280 129 -280 280 0 191 192 326 376 263z" />
  </g>
  <g transform="translate(0.000000,100.000000) scale(0.100000,-0.100000)" fill="#f8e55b" stroke="none">
    <path d="M441 769 c-251 -50 -295 -402 -65 -515 188 -92 397 38 397 246 0 179
-155 305 -332 269z m179 -300 c0 -21 -33 -66 -60 -83 -56 -32 -130 -12 -164
44 -28 48 -24 50 104 50 80 0 120 -4 120 -11z" />
  </g>
  <g transform="translate(0.000000,100.000000) scale(0.100000,-0.100000)" fill="#1f212b" stroke="none">
    <path d="M490 865 c0 -30 5 -55 10 -55 6 0 10 25 10 55 0 30 -4 55 -10 55 -5
0 -10 -25 -10 -55z" />
    <path d="M280 863 c0 -19 46 -93 57 -93 18 0 16 9 -9 58 -20 36 -48 57 -48 35z" />
    <path d="M672 828 c-25 -49 -27 -58 -9 -58 11 0 57 74 57 93 0 22 -28 1 -48
-35z" />
    <path d="M390 773 c-102 -37 -180 -154 -180 -273 0 -260 312 -390 496 -206
222 223 -16 584 -316 479z m227 -39 c195 -92 194 -374 -2 -469 -175 -86 -377
40 -377 234 0 199 196 321 379 235z" />
    <path d="M372 588 c-13 -13 -16 -38 -4 -38 4 0 14 6 20 12 10 10 17 10 33 0
25 -16 37 -7 23 16 -14 21 -55 27 -72 10z" />
    <path d="M562 588 c-13 -13 -16 -38 -4 -38 4 0 14 6 20 12 10 10 17 10 33 0
25 -16 37 -7 23 16 -14 21 -55 27 -72 10z" />
    <path d="M370 480 c0 -6 50 -10 130 -10 80 0 130 4 130 10 0 6 -50 10 -130 10
-80 0 -130 -4 -130 -10z" />
    <path d="M433 439 c-19 -6 -33 -16 -33 -25 0 -13 6 -14 28 -8 15 5 47 8 72 8
25 0 57 -3 73 -8 21 -6 27 -5 27 7 0 30 -100 45 -167 26z" />
    <path d="M130 707 c0 -11 74 -57 93 -57 22 0 1 28 -35 48 -49 25 -58 27 -58 9z" />
    <path d="M808 696 c-34 -18 -51 -46 -30 -46 18 0 92 46 92 57 0 18 -19 15 -62
-11z" />
    <path d="M80 500 c0 -5 25 -10 55 -10 30 0 55 5 55 10 0 6 -25 10 -55 10 -30
0 -55 -4 -55 -10z" />
    <path d="M810 500 c0 -5 25 -10 55 -10 30 0 55 5 55 10 0 6 -25 10 -55 10 -30
0 -55 -4 -55 -10z" />
    <path d="M168 326 c-34 -18 -51 -46 -30 -46 18 0 92 46 92 57 0 18 -19 15 -62
-11z" />
    <path d="M770 337 c0 -11 74 -57 93 -57 22 0 1 28 -35 48 -49 25 -58 27 -58 9z" />
    <path d="M302 188 c-25 -49 -27 -58 -9 -58 11 0 57 74 57 93 0 22 -28 1 -48
-35z" />
    <path d="M650 223 c0 -19 46 -93 57 -93 18 0 16 9 -9 58 -20 36 -48 57 -48 35z" />
    <path d="M490 135 c0 -30 5 -55 10 -55 6 0 10 25 10 55 0 30 -4 55 -10 55 -5
0 -10 -25 -10 -55z" />
  </g>
  <g transform="translate(0.000000,100.000000) scale(0.100000,-0.100000)" fill="#2d2d34" stroke="none">
    <path d="M320 778 c0 -5 7 -11 16 -15 14 -5 13 -8 -6 -23 -19 -14 -20 -18 -6
-23 9 -4 15 -2 13 6 -1 7 5 12 14 11 9 -1 16 5 16 12 0 8 -4 14 -9 14 -4 0 -8
6 -8 13 0 8 -7 14 -15 14 -8 0 -15 -4 -15 -9z" />
    <path d="M405 776 c-25 -10 -26 -13 -12 -19 12 -5 16 -3 11 5 -5 7 -1 9 13 6
12 -3 20 0 20 8 0 8 -1 14 -1 14 -1 -1 -14 -7 -31 -14z" />
    <path d="M563 775 c0 -7 8 -10 20 -7 14 3 18 1 13 -6 -5 -8 -2 -10 8 -6 22 8
20 11 -12 22 -22 7 -29 7 -29 -3z" />
    <path d="M650 773 c0 -7 -4 -13 -8 -13 -5 0 -9 -6 -9 -14 0 -7 7 -13 16 -12 9
1 15 -4 14 -11 -2 -8 4 -10 13 -6 14 5 13 9 -6 23 -19 15 -20 18 -6 23 20 8
21 24 1 24 -8 0 -15 -6 -15 -14z" />
    <path d="M552 719 c2 -7 10 -15 17 -17 8 -3 12 1 9 9 -2 7 -10 15 -17 17 -8 3
-12 -1 -9 -9z" />
    <path d="M259 668 c-10 -19 -12 -19 -21 -5 -11 21 -25 22 -25 2 0 -8 6 -15 14
-15 7 0 13 -4 13 -8 0 -5 6 -9 14 -9 7 0 13 7 12 16 0 9 4 15 11 14 7 -2 10 4
7 12 -8 20 -11 19 -25 -7z" />
    <path d="M717 676 c-4 -9 -2 -15 6 -13 7 1 12 -5 11 -14 -1 -9 5 -16 12 -16 8
0 14 4 14 9 0 4 6 8 13 8 8 0 14 7 14 15 0 20 -16 19 -24 -1 -5 -14 -8 -13
-23 6 -14 19 -18 20 -23 6z" />
    <path d="M222 592 c-7 -22 -7 -29 3 -29 7 0 10 8 7 20 -3 14 -1 18 6 13 8 -5
10 -2 6 8 -8 22 -11 20 -22 -12z" />
    <path d="M756 604 c-4 -10 -2 -13 6 -8 7 5 9 1 6 -13 -3 -12 0 -20 7 -20 10 0
10 7 3 29 -11 32 -14 34 -22 12z" />
    <path d="M371 472 c-1 -33 26 -76 59 -96 54 -31 55 -11 3 42 -21 21 -43 47
-50 58 -11 18 -12 18 -12 -4z" />
    <path d="M568 419 c-53 -54 -52 -74 2 -43 24 15 60 61 60 78 0 16 -29 0 -62
-35z" />
    <path d="M450 435 c0 -8 6 -15 13 -15 8 0 14 7 14 15 0 8 -6 15 -14 15 -7 0
-13 -7 -13 -15z" />
    <path d="M523 435 c0 -8 6 -15 14 -15 7 0 13 7 13 15 0 8 -6 15 -13 15 -8 0
-14 -7 -14 -15z" />
    <path d="M222 408 c11 -32 14 -34 22 -12 4 10 2 13 -6 8 -7 -5 -9 -1 -6 13 3
12 0 20 -7 20 -10 0 -10 -7 -3 -29z" />
    <path d="M768 417 c3 -14 1 -18 -6 -13 -8 5 -10 2 -6 -8 8 -22 11 -20 22 12 7
22 7 29 -3 29 -7 0 -10 -8 -7 -20z" />
    <path d="M480 370 c0 -5 9 -10 20 -10 11 0 20 5 20 10 0 6 -9 10 -20 10 -11 0
-20 -4 -20 -10z" />
    <path d="M240 358 c0 -4 -6 -8 -13 -8 -8 0 -14 -7 -14 -15 0 -20 16 -19 24 1
5 14 8 13 23 -6 14 -19 18 -20 23 -6 4 9 2 15 -6 13 -7 -1 -11 5 -11 14 1 9
-5 16 -12 16 -8 0 -14 -4 -14 -9z" />
    <path d="M734 351 c1 -9 -4 -15 -11 -14 -8 2 -10 -4 -6 -13 5 -14 9 -13 23 6
15 19 18 20 23 6 8 -20 24 -21 24 -1 0 8 -6 15 -14 15 -7 0 -13 4 -13 8 0 5
-6 9 -14 9 -7 0 -13 -7 -12 -16z" />
    <path d="M321 281 c-11 -7 -9 -11 9 -21 21 -11 21 -13 7 -22 -21 -11 -22 -25
-2 -25 8 0 15 6 15 14 0 7 4 13 8 13 5 0 9 6 9 14 0 7 -7 13 -16 12 -9 0 -15
5 -13 12 2 14 1 14 -17 3z" />
    <path d="M663 277 c1 -7 -5 -11 -14 -11 -9 1 -16 -5 -16 -12 0 -8 4 -14 9 -14
4 0 8 -6 8 -13 0 -8 7 -14 15 -14 20 0 19 16 -1 24 -14 5 -13 8 6 23 19 14 20
18 6 23 -9 4 -15 2 -13 -6z" />
    <path d="M392 241 c-10 -6 -6 -11 15 -19 23 -7 30 -7 30 3 0 7 -8 10 -20 7
-14 -3 -18 -1 -13 6 8 14 6 15 -12 3z" />
    <path d="M596 238 c5 -7 1 -9 -13 -6 -12 3 -20 0 -20 -7 0 -10 7 -10 29 -3 32
11 34 14 12 22 -10 4 -13 2 -8 -6z" />
  </g>
  <g transform="translate(0.000000,100.000000) scale(0.100000,-0.100000)" fill="#af7353" stroke="none">
    <path d="M375 471 c-3 -5 -1 -12 5 -16 6 -4 8 -11 5 -16 -4 -5 -1 -9 5 -9 6 0
8 -5 4 -12 -5 -8 -2 -9 12 -3 73 31 115 31 188 0 14 -6 17 -5 12 3 -4 7 -2 12
4 12 6 0 9 4 5 9 -3 5 -1 12 5 16 5 3 10 10 10 16 0 12 -247 12 -255 0z" />
  </g>
  <g transform="translate(0.000000,100.000000) scale(0.100000,-0.100000)" fill="#e5e5e6" stroke="none">
    <path d="M280 856 c0 -8 4 -18 10 -21 6 -4 7 1 3 11 -4 12 -3 15 5 10 7 -4 12
-2 12 3 0 6 -7 11 -15 11 -8 0 -15 -6 -15 -14z" />
    <path d="M690 859 c0 -5 5 -7 12 -3 8 5 9 2 5 -10 -4 -10 -3 -15 3 -11 15 10
12 35 -5 35 -8 0 -15 -5 -15 -11z" />
    <path d="M320 780 c0 -6 7 -13 16 -17 14 -5 13 -9 -7 -26 -19 -15 -16 -14 16
4 50 28 56 33 29 25 -14 -4 -28 -1 -38 9 -9 9 -16 11 -16 5z" />
    <path d="M662 774 c-9 -9 -22 -12 -35 -8 -28 8 -22 3 28 -25 22 -12 30 -15 17
-5 -21 16 -21 17 -5 29 10 8 16 16 13 18 -3 3 -11 -2 -18 -9z" />
    <path d="M130 705 c0 -8 5 -15 11 -15 5 0 7 5 3 12 -5 8 -2 9 10 5 10 -4 15
-3 11 3 -10 15 -35 12 -35 -5z" />
    <path d="M835 710 c-4 -6 1 -7 11 -3 12 4 15 3 10 -5 -4 -7 -2 -12 3 -12 6 0
11 7 11 15 0 17 -25 20 -35 5z" />
    <path d="M259 668 c-10 -19 -12 -19 -21 -5 -5 10 -14 17 -21 17 -8 0 -6 -4 3
-11 12 -9 11 -10 -8 -6 -12 3 -20 1 -16 -4 3 -5 14 -9 25 -9 16 0 19 -4 13
-22 -8 -28 -4 -24 25 25 12 20 20 37 17 37 -3 0 -10 -10 -17 -22z" />
    <path d="M741 655 c28 -50 33 -56 25 -29 -4 14 -1 28 9 38 9 9 11 16 5 16 -6
0 -13 -7 -17 -16 -5 -14 -9 -13 -26 7 -15 19 -14 16 4 -16z" />
    <path d="M234 374 c4 -14 1 -28 -9 -38 -9 -9 -11 -16 -5 -16 6 0 13 7 17 16 5
14 9 13 26 -7 15 -19 14 -16 -4 16 -28 50 -33 56 -25 29z" />
    <path d="M742 347 c-18 -32 -19 -36 -4 -18 16 20 20 21 25 7 4 -9 11 -16 17
-16 6 0 4 7 -5 16 -9 9 -13 24 -10 35 10 30 2 22 -23 -24z" />
    <path d="M130 295 c0 -17 25 -20 35 -5 4 6 -1 7 -11 3 -12 -4 -15 -3 -10 5 4
7 2 12 -3 12 -6 0 -11 -7 -11 -15z" />
    <path d="M856 298 c5 -8 2 -9 -10 -5 -10 4 -15 3 -11 -3 10 -15 35 -12 35 5 0
8 -5 15 -11 15 -5 0 -7 -5 -3 -12z" />
    <path d="M329 263 c20 -17 21 -21 7 -26 -9 -4 -16 -11 -16 -17 0 -6 7 -4 16 5
10 10 24 13 38 9 27 -8 21 -3 -29 25 -32 18 -35 19 -16 4z" />
    <path d="M645 254 c-22 -14 -30 -23 -19 -19 14 3 28 0 38 -10 9 -9 16 -11 16
-5 0 6 -7 13 -16 17 -14 5 -13 9 7 24 34 26 21 23 -26 -7z" />
    <path d="M287 163 c-13 -12 -7 -33 8 -33 8 0 15 5 15 11 0 5 -5 7 -12 3 -8 -5
-9 -2 -5 9 7 18 5 21 -6 10z" />
    <path d="M707 154 c4 -12 3 -15 -5 -10 -7 4 -12 2 -12 -3 0 -6 7 -11 15 -11
17 0 20 25 5 35 -6 4 -7 -1 -3 -11z" />
  </g>
  <g transform="translate(0.000000,100.000000) scale(0.100000,-0.100000)" fill="#3e3c36" stroke="none">
    <path d="M369 692 c-25 -16 -54 -47 -67 -70 -28 -51 -12 -56 18 -6 13 19 40
47 61 61 22 14 39 30 39 34 0 13 -1 12 -51 -19z" />
    <path d="M443 425 c0 -8 7 -15 15 -15 7 0 12 5 10 12 -6 18 -25 21 -25 3z" />
    <path d="M537 433 c-11 -11 -8 -23 6 -23 8 0 14 7 14 15 0 16 -9 19 -20 8z" />
    <path d="M302 379 c22 -39 47 -63 96 -88 36 -19 25 5 -14 29 -19 13 -47 40
-61 61 -34 52 -50 50 -21 -2z" />
    <path d="M398 413 c6 -2 10 -9 6 -14 -3 -5 2 -9 10 -9 9 0 16 4 16 9 0 9 -25
22 -38 20 -4 0 -1 -3 6 -6z" />
    <path d="M470 372 c0 -5 14 -9 30 -9 17 0 30 4 30 9 0 4 -13 8 -30 8 -16 0
-30 -4 -30 -8z" />
    <path d="M669 182 c5 -8 16 -17 25 -18 12 -2 14 2 7 14 -5 8 -16 17 -25 18
-12 2 -14 -2 -7 -14z" />
  </g>
  <g transform="translate(0.000000,100.000000) scale(0.100000,-0.100000)" fill="#ef5a6b" stroke="none">
    <path d="M441 417 c-22 -11 -30 -35 -10 -29 5 1 9 -2 9 -7 0 -5 27 -9 60 -9
33 0 60 4 60 9 0 5 3 8 8 7 4 -2 9 2 11 7 6 15 -39 35 -79 35 -19 0 -46 -6
-59 -13z" />
  </g>
  <g transform="translate(0.000000,100.000000) scale(0.100000,-0.100000)" fill="#e9d758" stroke="none">
    <path d="M552 719 c2 -7 10 -15 17 -17 8 -3 12 1 9 9 -2 7 -10 15 -17 17 -8 3
-12 -1 -9 -9z" />
    <path d="M339 671 c-11 -9 -21 -27 -24 -40 -3 -17 -1 -21 6 -14 6 6 12 18 13
28 1 10 11 20 21 21 24 4 40 21 19 21 -9 0 -25 -7 -35 -16z" />
    <path d="M315 370 c3 -13 11 -30 18 -37 7 -7 24 -15 37 -18 16 -3 20 -1 13 6
-6 6 -18 12 -28 13 -10 1 -20 11 -21 21 -1 10 -7 22 -13 28 -7 7 -9 3 -6 -13z" />
  </g>
  <g transform="translate(0.000000,100.000000) scale(0.100000,-0.100000)" fill="#51525a" stroke="none" />
  <g transform="translate(0.000000,100.000000) scale(0.100000,-0.100000)" fill="#6e6f75" stroke="none" />
  <g transform="translate(0.000000,100.000000) scale(0.100000,-0.100000)" fill="#beb04e" stroke="none">
    <path d="M440 720 c0 -5 9 -10 21 -10 11 0 17 5 14 10 -3 6 -13 10 -21 10 -8
0 -14 -4 -14 -10z" />
    <path d="M525 720 c-3 -5 3 -10 14 -10 12 0 21 5 21 10 0 6 -6 10 -14 10 -8 0
-18 -4 -21 -10z" />
    <path d="M270 546 c0 -8 5 -18 10 -21 6 -3 10 3 10 14 0 12 -4 21 -10 21 -5 0
-10 -6 -10 -14z" />
    <path d="M275 467 c-4 -10 -5 -21 -1 -24 10 -10 18 4 13 24 -4 17 -4 17 -12 0z" />
    <path d="M440 280 c0 -5 6 -10 14 -10 8 0 18 5 21 10 3 6 -3 10 -14 10 -12 0
-21 -4 -21 -10z" />
  </g>
  <g transform="translate(0.000000,100.000000) scale(0.100000,-0.100000)" fill="#554a38" stroke="none">
    <path d="M372 453 c2 -9 9 -18 16 -19 7 -1 8 0 3 2 -6 3 -7 12 -4 20 3 8 0 14
-7 14 -6 0 -10 -8 -8 -17z" />
    <path d="M613 456 c3 -8 2 -17 -4 -20 -5 -2 -4 -3 3 -2 17 3 23 36 8 36 -7 0
-10 -6 -7 -14z" />
    <path d="M429 380 c26 -23 46 -25 57 -8 5 8 0 9 -14 6 -12 -4 -22 -2 -22 4 0
5 -4 6 -10 3 -5 -3 -10 -1 -10 4 0 6 -6 11 -12 11 -7 -1 -2 -10 11 -20z" />
    <path d="M570 389 c0 -5 -4 -7 -10 -4 -5 3 -10 2 -10 -3 0 -6 -10 -8 -22 -4
-14 3 -19 2 -14 -6 4 -7 13 -12 20 -12 18 0 65 39 49 40 -7 0 -13 -5 -13 -11z" />
  </g>
  <g transform="translate(0.000000,100.000000) scale(0.100000,-0.100000)" fill="#9a9a9f" stroke="none" />
  <g transform="translate(0.000000,100.000000) scale(0.100000,-0.100000)" fill="#d8c854" stroke="none" />
  <g transform="translate(0.000000,100.000000) scale(0.100000,-0.100000)" fill="#a49949" stroke="none" />
  <g transform="translate(0.000000,100.000000) scale(0.100000,-0.100000)" fill="#605c39" stroke="none" />
  <g transform="translate(0.000000,100.000000) scale(0.100000,-0.100000)" fill="#918844" stroke="none" />
  <g transform="translate(0.000000,100.000000) scale(0.100000,-0.100000)" fill="#afb0b4" stroke="none" />
  <g transform="translate(0.000000,100.000000) scale(0.100000,-0.100000)" fill="#7d7540" stroke="none" />
  <g transform="translate(0.000000,100.000000) scale(0.100000,-0.100000)" fill="#cccccf" stroke="none" />
  <g transform="translate(0.000000,100.000000) scale(0.100000,-0.100000)" fill="#735f3f" stroke="none" />
  <g transform="translate(0.000000,100.000000) scale(0.100000,-0.100000)" fill="#88898e" stroke="none" />
  <g transform="translate(0.000000,100.000000) scale(0.100000,-0.100000)" fill="#9e4352" stroke="none" />
  <g transform="translate(0.000000,100.000000) scale(0.100000,-0.100000)" fill="#c44f5e" stroke="none" />
</svg>