<?xml version="1.0" standalone="no"?>
<!DOCTYPE svg PUBLIC "-//W3C//DTD SVG 20010904//EN"
 "http://www.w3.org/TR/2001/REC-SVG-20010904/DTD/svg10.dtd">
<svg version="1.0" xmlns="http://www.w3.org/2000/svg"
 width="64.000000pt" height="64.000000pt" viewBox="0 0 64.000000 64.000000"
 preserveAspectRatio="xMidYMid meet">

<g transform="translate(0.000000,64.000000) scale(0.100000,-0.100000)"
fill="#000000" stroke="none">
<path d="M225 610 c-3 -5 -21 -10 -40 -10 -21 0 -39 -7 -47 -18 -7 -10 -25
-22 -39 -25 -18 -5 -29 -16 -34 -34 -3 -15 -15 -33 -26 -41 -11 -8 -19 -25
-19 -42 0 -16 -5 -41 -12 -55 -9 -19 -9 -28 0 -37 7 -7 12 -29 12 -49 0 -24 5
-39 15 -43 9 -3 23 -22 31 -41 9 -22 21 -35 32 -35 10 0 36 -20 58 -45 52 -57
84 -70 130 -50 40 16 64 11 64 -15 0 -35 26 -47 94 -47 37 0 66 3 66 8 0 5 7
9 15 9 8 0 27 11 42 25 15 14 38 34 51 45 32 28 29 74 -8 112 -23 23 -37 29
-62 26 -27 -3 -35 2 -51 30 -17 28 -17 37 -7 63 10 23 10 36 1 55 -6 14 -9 35
-5 48 4 17 -1 27 -20 40 -14 9 -26 24 -26 34 0 23 -19 42 -42 42 -9 0 -22 9
-28 20 -8 15 -21 20 -50 20 -21 0 -42 5 -45 10 -3 6 -15 10 -25 10 -10 0 -22
-4 -25 -10z m88 -28 c23 -2 41 -11 48 -23 5 -10 19 -19 30 -19 13 0 24 -10 31
-30 5 -17 19 -35 30 -41 13 -7 17 -16 12 -31 -3 -11 -1 -31 6 -43 10 -19 10
-29 -1 -54 -20 -46 -44 -37 -41 15 10 131 -124 228 -242 176 -25 -12 -46 -26
-46 -31 0 -15 6 -14 42 5 75 39 175 6 209 -70 32 -70 24 -109 -24 -121 -15 -4
-41 -20 -57 -36 -16 -17 -39 -29 -54 -29 -14 0 -37 -5 -51 -12 -22 -10 -29 -8
-51 13 -14 13 -32 36 -40 51 -18 35 -17 106 1 138 17 30 18 40 5 40 -18 0 -42
-63 -42 -110 0 -55 12 -82 60 -132 23 -25 33 -42 28 -54 -6 -15 -8 -16 -24 0
-10 9 -26 16 -34 16 -9 0 -21 14 -27 30 -5 17 -17 33 -26 36 -10 4 -15 19 -15
43 0 20 -5 42 -11 48 -8 8 -7 17 4 33 8 12 12 30 10 41 -3 12 3 29 15 42 11
12 23 32 27 45 3 12 14 22 24 22 10 0 26 9 36 20 11 12 31 20 51 20 18 0 36 5
39 11 4 6 14 7 24 3 9 -4 33 -9 54 -12z m136 -296 c15 -8 35 -26 45 -40 13
-20 22 -24 44 -20 19 4 36 -1 55 -16 32 -26 35 -59 7 -91 -20 -23 -21 -23 -33
-5 -37 58 -89 74 -126 37 -19 -19 -61 -33 -101 -32 -14 0 -39 -7 -57 -15 -40
-18 -79 -5 -93 31 -20 53 24 102 80 90 25 -6 32 -3 41 19 12 26 61 55 92 56
10 0 31 -7 46 -14z m76 -156 c15 -16 16 -25 7 -44 -12 -27 -57 -42 -77 -26 -9
8 -20 7 -39 -1 -21 -10 -29 -10 -39 0 -16 16 4 47 29 44 10 -1 31 9 47 23 35
29 48 30 72 4z"/>
</g>
</svg>
